# xmcd
#
# Track frame offsets:
# 150
# 19789
# 38345
# 50905
# 71986
# 95090
# 115435
# 131182
# 170823
# 193710
# 224485
# 237844
#
# Disc length: 3491 seconds
#
# Revision: 1
# Processed by: cddbd v1.5PL3 Copyright (c) Steve Scherf et al.
# Submitted via: inCDius 2.0b9
#
DISCID=bd0da10c
DTITLE=Jim Mesi Band - Blues for Christopher
DYEAR=1900
DGENRE=
TTITLE0=Short-Guy Shuffle
TTITLE1=Jump Jive N Then You Wail
TTITLE2=Rumble
TTITLE3=Don't Kick Me When I'm Down
TTITLE4=Song for Christopher
TTITLE5=Too Tired
TTITLE6=Time Is Tight
TTITLE7=C.C. Rider
TTITLE8=Red-Headed Woman
TTITLE9=Honky Tonk
TTITLE10=Waitin' On You
TTITLE11=Sleepwalk
EXTD=
EXTT0=
EXTT1=
EXTT2=
EXTT3=
EXTT4=
EXTT5=
EXTT6=
EXTT7=
EXTT8=
EXTT9=
EXTT10=
EXTT11=
PLAYORDER=
